<mxfile host="www.draw.io" modified="2019-11-08T15:26:07.356Z" agent="Mozilla/5.0 (Windows NT 10.0; Win64; x64) AppleWebKit/537.36 (KHTML, like Gecko) Chrome/78.0.3904.87 Safari/537.36" etag="ipNLvk9RM1a9jbbAYfvg" version="12.2.3" type="github" pages="1">
  <diagram id="Ebnv-GKzkVtxkwz2iY0m" name="Page-1">
    <mxGraphModel dx="854" dy="436" grid="1" gridSize="10" guides="1" tooltips="1" connect="1" arrows="1" fold="1" page="1" pageScale="1" pageWidth="827" pageHeight="1169" math="0" shadow="0">
      <root>
        <mxCell id="0"/>
        <mxCell id="1" parent="0"/>
        <mxCell id="JjqrXNdA9rt6CY1BIO7P-1" value="Start" style="ellipse;whiteSpace=wrap;html=1;" parent="1" vertex="1">
          <mxGeometry x="150" y="30" width="120" height="80" as="geometry"/>
        </mxCell>
        <mxCell id="1vBB7NY_RCICOXM90jw8-2" value="" style="endArrow=classic;html=1;exitX=0.5;exitY=1;exitDx=0;exitDy=0;entryX=0.5;entryY=0;entryDx=0;entryDy=0;" parent="1" source="JjqrXNdA9rt6CY1BIO7P-1" edge="1">
          <mxGeometry width="50" height="50" relative="1" as="geometry">
            <mxPoint x="280" y="140" as="sourcePoint"/>
            <mxPoint x="210" y="150" as="targetPoint"/>
          </mxGeometry>
        </mxCell>
        <mxCell id="1vBB7NY_RCICOXM90jw8-10" value="Get user input to choose what type of function" style="rounded=0;whiteSpace=wrap;html=1;" parent="1" vertex="1">
          <mxGeometry x="150" y="150" width="120" height="60" as="geometry"/>
        </mxCell>
        <mxCell id="1vBB7NY_RCICOXM90jw8-12" value="What type of function??" style="rhombus;whiteSpace=wrap;html=1;" parent="1" vertex="1">
          <mxGeometry x="330" y="125" width="127" height="110" as="geometry"/>
        </mxCell>
        <mxCell id="1vBB7NY_RCICOXM90jw8-14" value="" style="endArrow=classic;html=1;entryX=0;entryY=0.5;entryDx=0;entryDy=0;" parent="1" target="1vBB7NY_RCICOXM90jw8-12" edge="1">
          <mxGeometry width="50" height="50" relative="1" as="geometry">
            <mxPoint x="270" y="180" as="sourcePoint"/>
            <mxPoint x="320" y="130" as="targetPoint"/>
          </mxGeometry>
        </mxCell>
        <mxCell id="1vBB7NY_RCICOXM90jw8-18" value="" style="edgeStyle=orthogonalEdgeStyle;rounded=0;orthogonalLoop=1;jettySize=auto;html=1;" parent="1" source="1vBB7NY_RCICOXM90jw8-15" target="1vBB7NY_RCICOXM90jw8-12" edge="1">
          <mxGeometry relative="1" as="geometry"/>
        </mxCell>
        <mxCell id="1vBB7NY_RCICOXM90jw8-15" value="Get degree of polynomial function" style="rounded=0;whiteSpace=wrap;html=1;" parent="1" vertex="1">
          <mxGeometry x="333.5" y="30" width="120" height="60" as="geometry"/>
        </mxCell>
        <mxCell id="1vBB7NY_RCICOXM90jw8-17" value="" style="endArrow=classic;html=1;entryX=0.5;entryY=1;entryDx=0;entryDy=0;" parent="1" target="1vBB7NY_RCICOXM90jw8-15" edge="1">
          <mxGeometry width="50" height="50" relative="1" as="geometry">
            <mxPoint x="394" y="126" as="sourcePoint"/>
            <mxPoint x="200" y="260" as="targetPoint"/>
          </mxGeometry>
        </mxCell>
        <mxCell id="1vBB7NY_RCICOXM90jw8-19" value="" style="endArrow=classic;html=1;exitX=1;exitY=0;exitDx=0;exitDy=0;" parent="1" source="1vBB7NY_RCICOXM90jw8-12" edge="1">
          <mxGeometry width="50" height="50" relative="1" as="geometry">
            <mxPoint x="150" y="310" as="sourcePoint"/>
            <mxPoint x="520" y="153" as="targetPoint"/>
          </mxGeometry>
        </mxCell>
        <mxCell id="1vBB7NY_RCICOXM90jw8-20" value="" style="endArrow=classic;html=1;exitX=1;exitY=0.5;exitDx=0;exitDy=0;" parent="1" source="1vBB7NY_RCICOXM90jw8-15" edge="1">
          <mxGeometry width="50" height="50" relative="1" as="geometry">
            <mxPoint x="460" y="110" as="sourcePoint"/>
            <mxPoint x="510" y="60" as="targetPoint"/>
          </mxGeometry>
        </mxCell>
        <mxCell id="1vBB7NY_RCICOXM90jw8-21" value="Get coefficients for each term of the polynomial" style="rounded=0;whiteSpace=wrap;html=1;" parent="1" vertex="1">
          <mxGeometry x="510" y="30" width="120" height="60" as="geometry"/>
        </mxCell>
        <mxCell id="1vBB7NY_RCICOXM90jw8-24" value="Polynomial" style="text;html=1;resizable=0;points=[];autosize=1;align=left;verticalAlign=top;spacingTop=-4;" parent="1" vertex="1">
          <mxGeometry x="323.5" y="105" width="70" height="20" as="geometry"/>
        </mxCell>
        <mxCell id="1vBB7NY_RCICOXM90jw8-25" value="Rational" style="text;html=1;resizable=0;points=[];autosize=1;align=left;verticalAlign=top;spacingTop=-4;" parent="1" vertex="1">
          <mxGeometry x="440" y="130" width="60" height="20" as="geometry"/>
        </mxCell>
        <mxCell id="1vBB7NY_RCICOXM90jw8-26" value="Get degree of numerator and get coefficients" style="rounded=0;whiteSpace=wrap;html=1;" parent="1" vertex="1">
          <mxGeometry x="520" y="130" width="120" height="60" as="geometry"/>
        </mxCell>
        <mxCell id="1vBB7NY_RCICOXM90jw8-27" value="" style="endArrow=classic;html=1;exitX=0.5;exitY=1;exitDx=0;exitDy=0;" parent="1" source="1vBB7NY_RCICOXM90jw8-26" edge="1">
          <mxGeometry width="50" height="50" relative="1" as="geometry">
            <mxPoint x="560" y="240" as="sourcePoint"/>
            <mxPoint x="580" y="240" as="targetPoint"/>
          </mxGeometry>
        </mxCell>
        <mxCell id="1vBB7NY_RCICOXM90jw8-28" value="Get degree of denominator and coefficients" style="rounded=0;whiteSpace=wrap;html=1;" parent="1" vertex="1">
          <mxGeometry x="520" y="240" width="120" height="60" as="geometry"/>
        </mxCell>
        <mxCell id="1vBB7NY_RCICOXM90jw8-29" value="" style="endArrow=classic;html=1;exitX=1;exitY=0.5;exitDx=0;exitDy=0;" parent="1" source="1vBB7NY_RCICOXM90jw8-12" edge="1">
          <mxGeometry width="50" height="50" relative="1" as="geometry">
            <mxPoint x="150" y="370" as="sourcePoint"/>
            <mxPoint x="457" y="310" as="targetPoint"/>
          </mxGeometry>
        </mxCell>
        <mxCell id="1vBB7NY_RCICOXM90jw8-30" value="Trigonometric" style="text;html=1;resizable=0;points=[];autosize=1;align=left;verticalAlign=top;spacingTop=-4;" parent="1" vertex="1">
          <mxGeometry x="455" y="215" width="90" height="20" as="geometry"/>
        </mxCell>
        <mxCell id="1vBB7NY_RCICOXM90jw8-32" value="What type of trig function?" style="rhombus;whiteSpace=wrap;html=1;" parent="1" vertex="1">
          <mxGeometry x="395.5" y="310" width="123" height="120" as="geometry"/>
        </mxCell>
        <mxCell id="1vBB7NY_RCICOXM90jw8-33" value="" style="endArrow=classic;html=1;exitX=0.5;exitY=1;exitDx=0;exitDy=0;" parent="1" source="1vBB7NY_RCICOXM90jw8-32" edge="1">
          <mxGeometry width="50" height="50" relative="1" as="geometry">
            <mxPoint x="150" y="500" as="sourcePoint"/>
            <mxPoint x="457" y="470" as="targetPoint"/>
          </mxGeometry>
        </mxCell>
        <mxCell id="1vBB7NY_RCICOXM90jw8-34" value="Get coefficients and constant for sinx" style="rounded=0;whiteSpace=wrap;html=1;" parent="1" vertex="1">
          <mxGeometry x="397" y="470" width="120" height="60" as="geometry"/>
        </mxCell>
        <mxCell id="1vBB7NY_RCICOXM90jw8-35" value="Get coefficients and constant for cosx" style="rounded=0;whiteSpace=wrap;html=1;" parent="1" vertex="1">
          <mxGeometry x="545" y="440" width="120" height="60" as="geometry"/>
        </mxCell>
        <mxCell id="1vBB7NY_RCICOXM90jw8-36" value="&lt;span style=&quot;white-space: normal&quot;&gt;Get coefficients and constant for tanx&lt;/span&gt;" style="rounded=0;whiteSpace=wrap;html=1;" parent="1" vertex="1">
          <mxGeometry x="580" y="340" width="120" height="60" as="geometry"/>
        </mxCell>
        <mxCell id="1vBB7NY_RCICOXM90jw8-37" value="" style="endArrow=classic;html=1;exitX=1;exitY=1;exitDx=0;exitDy=0;entryX=0;entryY=0.25;entryDx=0;entryDy=0;" parent="1" source="1vBB7NY_RCICOXM90jw8-32" target="1vBB7NY_RCICOXM90jw8-35" edge="1">
          <mxGeometry width="50" height="50" relative="1" as="geometry">
            <mxPoint x="475" y="450" as="sourcePoint"/>
            <mxPoint x="525" y="400" as="targetPoint"/>
          </mxGeometry>
        </mxCell>
        <mxCell id="1vBB7NY_RCICOXM90jw8-45" value="" style="endArrow=classic;html=1;entryX=0;entryY=0.5;entryDx=0;entryDy=0;" parent="1" target="1vBB7NY_RCICOXM90jw8-36" edge="1">
          <mxGeometry width="50" height="50" relative="1" as="geometry">
            <mxPoint x="517" y="370" as="sourcePoint"/>
            <mxPoint x="567" y="320" as="targetPoint"/>
          </mxGeometry>
        </mxCell>
        <mxCell id="1vBB7NY_RCICOXM90jw8-46" value="tanx" style="text;html=1;resizable=0;points=[];autosize=1;align=left;verticalAlign=top;spacingTop=-4;" parent="1" vertex="1">
          <mxGeometry x="539" y="352" width="40" height="20" as="geometry"/>
        </mxCell>
        <mxCell id="1vBB7NY_RCICOXM90jw8-47" value="cosx&lt;br&gt;" style="text;html=1;resizable=0;points=[];autosize=1;align=left;verticalAlign=top;spacingTop=-4;" parent="1" vertex="1">
          <mxGeometry x="525" y="410" width="40" height="20" as="geometry"/>
        </mxCell>
        <mxCell id="1vBB7NY_RCICOXM90jw8-48" value="sinx&lt;br&gt;" style="text;html=1;resizable=0;points=[];autosize=1;align=left;verticalAlign=top;spacingTop=-4;" parent="1" vertex="1">
          <mxGeometry x="470" y="441" width="40" height="20" as="geometry"/>
        </mxCell>
        <mxCell id="1vBB7NY_RCICOXM90jw8-50" value="Get base of logarithm, coefficient, and constants" style="rounded=0;whiteSpace=wrap;html=1;" parent="1" vertex="1">
          <mxGeometry x="239" y="322" width="120" height="68" as="geometry"/>
        </mxCell>
        <mxCell id="1vBB7NY_RCICOXM90jw8-52" value="" style="endArrow=classic;html=1;exitX=0.5;exitY=1;exitDx=0;exitDy=0;entryX=1;entryY=0.5;entryDx=0;entryDy=0;" parent="1" edge="1">
          <mxGeometry width="50" height="50" relative="1" as="geometry">
            <mxPoint x="397" y="235" as="sourcePoint"/>
            <mxPoint x="362" y="352" as="targetPoint"/>
          </mxGeometry>
        </mxCell>
        <mxCell id="1vBB7NY_RCICOXM90jw8-53" value="Logarithmic" style="text;html=1;resizable=0;points=[];autosize=1;align=left;verticalAlign=top;spacingTop=-4;" parent="1" vertex="1">
          <mxGeometry x="310" y="290" width="80" height="20" as="geometry"/>
        </mxCell>
        <mxCell id="1vBB7NY_RCICOXM90jw8-55" value="" style="endArrow=classic;html=1;exitX=0;exitY=1;exitDx=0;exitDy=0;" parent="1" source="1vBB7NY_RCICOXM90jw8-12" edge="1">
          <mxGeometry width="50" height="50" relative="1" as="geometry">
            <mxPoint x="310" y="270" as="sourcePoint"/>
            <mxPoint x="290" y="250" as="targetPoint"/>
          </mxGeometry>
        </mxCell>
        <mxCell id="1vBB7NY_RCICOXM90jw8-56" value="Get base of exponent, exponent, coefficients, and constant" style="rounded=1;whiteSpace=wrap;html=1;" parent="1" vertex="1">
          <mxGeometry x="170" y="240" width="120" height="60" as="geometry"/>
        </mxCell>
        <mxCell id="1vBB7NY_RCICOXM90jw8-57" value="Exponential" style="text;html=1;resizable=0;points=[];autosize=1;align=left;verticalAlign=top;spacingTop=-4;" parent="1" vertex="1">
          <mxGeometry x="260" y="215" width="80" height="20" as="geometry"/>
        </mxCell>
        <mxCell id="1vBB7NY_RCICOXM90jw8-58" value="Process the function by inputting arbitrary x values to get y values" style="rounded=0;whiteSpace=wrap;html=1;" parent="1" vertex="1">
          <mxGeometry x="320" y="600" width="120" height="60" as="geometry"/>
        </mxCell>
        <mxCell id="1vBB7NY_RCICOXM90jw8-59" value="" style="endArrow=classic;html=1;exitX=0.5;exitY=1;exitDx=0;exitDy=0;entryX=0.5;entryY=0;entryDx=0;entryDy=0;" parent="1" source="1vBB7NY_RCICOXM90jw8-50" target="1vBB7NY_RCICOXM90jw8-58" edge="1">
          <mxGeometry width="50" height="50" relative="1" as="geometry">
            <mxPoint x="150" y="730" as="sourcePoint"/>
            <mxPoint x="350" y="590" as="targetPoint"/>
          </mxGeometry>
        </mxCell>
        <mxCell id="1vBB7NY_RCICOXM90jw8-61" value="" style="endArrow=classic;html=1;exitX=0.5;exitY=1;exitDx=0;exitDy=0;entryX=0.5;entryY=0;entryDx=0;entryDy=0;" parent="1" source="1vBB7NY_RCICOXM90jw8-34" target="1vBB7NY_RCICOXM90jw8-58" edge="1">
          <mxGeometry width="50" height="50" relative="1" as="geometry">
            <mxPoint x="150" y="730" as="sourcePoint"/>
            <mxPoint x="200" y="680" as="targetPoint"/>
          </mxGeometry>
        </mxCell>
        <mxCell id="1vBB7NY_RCICOXM90jw8-62" value="" style="endArrow=classic;html=1;exitX=0.5;exitY=1;exitDx=0;exitDy=0;entryX=1;entryY=0.25;entryDx=0;entryDy=0;" parent="1" source="1vBB7NY_RCICOXM90jw8-35" target="1vBB7NY_RCICOXM90jw8-58" edge="1">
          <mxGeometry width="50" height="50" relative="1" as="geometry">
            <mxPoint x="150" y="730" as="sourcePoint"/>
            <mxPoint x="200" y="680" as="targetPoint"/>
          </mxGeometry>
        </mxCell>
        <mxCell id="1vBB7NY_RCICOXM90jw8-63" value="" style="endArrow=classic;html=1;entryX=1;entryY=0.75;entryDx=0;entryDy=0;" parent="1" target="1vBB7NY_RCICOXM90jw8-58" edge="1">
          <mxGeometry width="50" height="50" relative="1" as="geometry">
            <mxPoint x="750" y="645" as="sourcePoint"/>
            <mxPoint x="750" y="350" as="targetPoint"/>
          </mxGeometry>
        </mxCell>
        <mxCell id="1vBB7NY_RCICOXM90jw8-67" value="" style="endArrow=none;html=1;exitX=1;exitY=0.25;exitDx=0;exitDy=0;" parent="1" source="1vBB7NY_RCICOXM90jw8-21" edge="1">
          <mxGeometry width="50" height="50" relative="1" as="geometry">
            <mxPoint x="640" y="80" as="sourcePoint"/>
            <mxPoint x="750" y="45" as="targetPoint"/>
          </mxGeometry>
        </mxCell>
        <mxCell id="1vBB7NY_RCICOXM90jw8-70" value="" style="endArrow=none;html=1;exitX=1;exitY=0.5;exitDx=0;exitDy=0;" parent="1" source="1vBB7NY_RCICOXM90jw8-28" edge="1">
          <mxGeometry width="50" height="50" relative="1" as="geometry">
            <mxPoint x="650" y="300" as="sourcePoint"/>
            <mxPoint x="750" y="270" as="targetPoint"/>
          </mxGeometry>
        </mxCell>
        <mxCell id="1vBB7NY_RCICOXM90jw8-72" value="" style="endArrow=none;html=1;exitX=1;exitY=0.5;exitDx=0;exitDy=0;" parent="1" source="1vBB7NY_RCICOXM90jw8-36" edge="1">
          <mxGeometry width="50" height="50" relative="1" as="geometry">
            <mxPoint x="700" y="400" as="sourcePoint"/>
            <mxPoint x="750" y="370" as="targetPoint"/>
          </mxGeometry>
        </mxCell>
        <mxCell id="1vBB7NY_RCICOXM90jw8-74" value="" style="endArrow=none;html=1;" parent="1" edge="1">
          <mxGeometry width="50" height="50" relative="1" as="geometry">
            <mxPoint x="750" y="650" as="sourcePoint"/>
            <mxPoint x="750" y="40" as="targetPoint"/>
          </mxGeometry>
        </mxCell>
        <mxCell id="1vBB7NY_RCICOXM90jw8-75" value="Output coordinates to a file&amp;nbsp;" style="rounded=0;whiteSpace=wrap;html=1;" parent="1" vertex="1">
          <mxGeometry x="320" y="690" width="120" height="60" as="geometry"/>
        </mxCell>
        <mxCell id="1vBB7NY_RCICOXM90jw8-76" value="" style="endArrow=classic;html=1;entryX=0.5;entryY=0;entryDx=0;entryDy=0;exitX=0.5;exitY=1;exitDx=0;exitDy=0;" parent="1" source="1vBB7NY_RCICOXM90jw8-58" target="1vBB7NY_RCICOXM90jw8-75" edge="1">
          <mxGeometry width="50" height="50" relative="1" as="geometry">
            <mxPoint x="360" y="720" as="sourcePoint"/>
            <mxPoint x="410" y="670" as="targetPoint"/>
          </mxGeometry>
        </mxCell>
        <mxCell id="1vBB7NY_RCICOXM90jw8-77" value="End" style="ellipse;whiteSpace=wrap;html=1;" parent="1" vertex="1">
          <mxGeometry x="320" y="780" width="120" height="80" as="geometry"/>
        </mxCell>
        <mxCell id="1vBB7NY_RCICOXM90jw8-79" value="" style="endArrow=classic;html=1;entryX=0.5;entryY=0;entryDx=0;entryDy=0;" parent="1" source="1vBB7NY_RCICOXM90jw8-75" target="1vBB7NY_RCICOXM90jw8-77" edge="1">
          <mxGeometry width="50" height="50" relative="1" as="geometry">
            <mxPoint x="380" y="800" as="sourcePoint"/>
            <mxPoint x="380" y="820.7106781186548" as="targetPoint"/>
          </mxGeometry>
        </mxCell>
      </root>
    </mxGraphModel>
  </diagram>
</mxfile>
